<svg width="50" height="34" viewBox="0 0 50 34" fill="none" xmlns="http://www.w3.org/2000/svg">
<path fill-rule="evenodd" clip-rule="evenodd" d="M3.52513 0.974365C1.57865 0.974365 0 2.55321 0 4.50026V29.5639C0 31.5113 1.57814 33.0897 3.52513 33.0897H46.4749C48.4213 33.0897 50 31.5109 50 29.5639V4.50026C50 2.55283 48.4219 0.974365 46.4749 0.974365H3.52513Z" fill="#4D4D4D"/>
<path fill-rule="evenodd" clip-rule="evenodd" d="M20.9713 11.3521C21.5378 11.3521 22.0128 11.4665 22.591 11.7425V13.2009C22.0433 12.6969 21.5683 12.4859 20.94 12.4859C19.7051 12.4859 18.734 13.4484 18.734 14.6686C18.734 15.9554 19.6751 16.8606 21.0013 16.8606C21.5982 16.8606 22.0645 16.6606 22.591 16.1647V17.6238C21.9922 17.8892 21.507 17.9941 20.94 17.9941C18.935 17.9941 17.3771 16.5456 17.3771 14.6776C17.3771 12.8298 18.9765 11.3521 20.9713 11.3521ZM14.7461 11.3923C15.4862 11.3923 16.1634 11.6308 16.7296 12.097L16.0406 12.9463C15.6977 12.5844 15.3733 12.4317 14.9788 12.4317C14.4113 12.4317 13.9981 12.7358 13.9981 13.1361C13.9981 13.4793 14.2301 13.661 15.0201 13.9362C16.5179 14.4519 16.9618 14.909 16.9618 15.9186C16.9618 17.149 16.0018 18.0054 14.6336 18.0054C13.6317 18.0054 12.9032 17.6339 12.2965 16.7956L13.1471 16.0245C13.4503 16.5764 13.9562 16.872 14.5842 16.872C15.1716 16.872 15.6065 16.4905 15.6065 15.9756C15.6065 15.7087 15.4747 15.4799 15.2117 15.3181C15.0793 15.2415 14.817 15.1272 14.3015 14.9561C13.0649 14.537 12.6406 14.089 12.6406 13.2135C12.6406 12.1734 13.5517 11.3923 14.7461 11.3923ZM29.7924 11.5031H31.2307L33.031 15.7718L34.8544 11.5031H36.2818L33.3655 18.0214H32.657L29.7924 11.5031ZM4.32141 11.5128H6.2541C8.38949 11.5128 9.87808 12.8194 9.87808 14.6949C9.87808 15.6302 9.42269 16.5344 8.65256 17.1345C8.00462 17.641 7.26628 17.8681 6.24397 17.8681H4.32141V11.5128ZM10.4839 11.5128H11.8006V17.8681H10.4839V11.5128ZM36.8771 11.5128H40.6112V12.5897H38.1929V14.0003H40.5222V15.0767H38.1929V16.7922H40.6113V17.8681H36.8772V11.5128H36.8771ZM41.4834 11.5128H43.4356C44.9542 11.5128 45.8244 12.1994 45.8244 13.3892C45.8244 14.3623 45.2787 15.0008 44.2869 15.1908L46.4117 17.8681H44.7925L42.9701 15.3151H42.7985V17.8681H41.4834V11.5128ZM42.7985 12.5138V14.4385H43.1832C44.024 14.4385 44.4697 14.0948 44.4697 13.456C44.4697 12.8375 44.0239 12.5138 43.204 12.5138H42.7985ZM5.63718 12.5897V16.7922H5.99051C6.84135 16.7922 7.37872 16.6387 7.79244 16.287C8.24776 15.9053 8.52167 15.2957 8.52167 14.6858C8.52167 14.0769 8.24776 13.4854 7.79244 13.1036C7.3575 12.7331 6.84135 12.5897 5.99051 12.5897H5.63718Z" fill="white"/>
<path fill-rule="evenodd" clip-rule="evenodd" d="M26.6109 11.3084C28.5943 11.3084 30.2021 12.8199 30.2021 14.6871V14.6892C30.2021 16.5566 28.5943 18.0701 26.611 18.0701C24.6276 18.0701 23.0198 16.5565 23.0198 14.6892V14.6871C23.0198 12.8198 24.6276 11.3083 26.611 11.3083L26.6109 11.3084ZM49.9987 19.459C48.3288 20.634 35.8269 29.0321 14.1814 33.0885H46.4737C48.4202 33.0885 49.9988 31.5096 49.9988 29.5626V19.4587L49.9987 19.459Z" fill="#F47216"/>
</svg>
