<svg width="50" height="50" viewBox="0 0 50 50" fill="none" xmlns="http://www.w3.org/2000/svg">
<path d="M2.5641 8.97437H47.4359C48.8521 8.97437 50 10.1224 50 11.5385V38.4615C50 39.8777 48.8521 41.0256 47.4359 41.0256H2.5641C1.14801 41.0256 0 39.8777 0 38.4615V11.5385C0 10.1224 1.14801 8.97437 2.5641 8.97437Z" fill="#16366F"/>
<path d="M28.7827 25C28.7827 31.3553 23.6308 36.5064 17.2756 36.5064C10.9205 36.5064 5.76923 31.3551 5.76923 25C5.76923 18.6453 10.9206 13.4936 17.2756 13.4936C23.6306 13.4936 28.7827 18.6455 28.7827 25Z" fill="#D9222A"/>
<path d="M32.7237 13.4933C29.7506 13.4933 27.0415 14.6213 24.9994 16.4719C24.5833 16.8494 24.195 17.2564 23.8375 17.6896H26.1622C26.4806 18.0766 26.7735 18.4837 27.0395 18.9084H22.9603C22.715 19.3008 22.4936 19.7077 22.2974 20.1269H27.702C27.8875 20.5233 28.0502 20.9301 28.1892 21.3451H21.8103C21.6762 21.7448 21.5646 22.1516 21.4758 22.5636H28.5233C28.6956 23.3642 28.7825 24.181 28.7823 25C28.7823 26.2778 28.5737 27.5073 28.1891 28.6551H21.8101C21.9488 29.0705 22.1114 29.4773 22.297 29.8737H27.7019C27.5055 30.293 27.284 30.6999 27.0387 31.0925H22.9601C23.2264 31.5174 23.5197 31.9245 23.8374 32.3102H26.1616C25.8045 32.7443 25.4161 33.1516 24.9994 33.5289C27.0417 35.3794 29.7506 36.5067 32.7238 36.5067C39.0788 36.5067 44.2308 31.3553 44.2308 25.0003C44.2308 18.6458 39.0789 13.4939 32.7238 13.4939" fill="#EE9F2D"/>
<path d="M42.6974 31.4141C42.6974 31.2089 42.8636 31.0422 43.069 31.0422C43.2744 31.0422 43.4405 31.2089 43.4405 31.4141C43.4405 31.6191 43.2744 31.7858 43.069 31.7858C42.8637 31.7857 42.6974 31.6193 42.6974 31.4141ZM43.069 31.6966C43.2251 31.6966 43.3515 31.57 43.3515 31.4141C43.3515 31.2581 43.2251 31.1318 43.0692 31.1318H43.069C42.9133 31.1315 42.7869 31.2576 42.7867 31.4133V31.4141C42.7865 31.57 42.9128 31.6966 43.0686 31.6967C43.0687 31.6966 43.0688 31.6966 43.069 31.6966ZM43.0188 31.5774H42.9426V31.2509H43.0804C43.1092 31.2509 43.1386 31.2509 43.164 31.2672C43.1905 31.285 43.2054 31.3165 43.2054 31.3491C43.2054 31.3856 43.1838 31.4199 43.1488 31.4332L43.2089 31.5774H43.1246L43.0746 31.4482H43.0188V31.5774H43.0188ZM43.0188 31.3922H43.061C43.0767 31.3922 43.0933 31.3934 43.1074 31.3857C43.12 31.3777 43.1264 31.3627 43.1264 31.3483C43.1264 31.3358 43.1187 31.3214 43.1079 31.3152C43.0947 31.3068 43.0736 31.3088 43.0594 31.3088H43.0188V31.3922ZM14.5893 26.2599C14.4582 26.2447 14.4005 26.2406 14.3104 26.2406C13.6024 26.2406 13.244 26.4835 13.244 26.9629C13.244 27.2585 13.419 27.4466 13.6919 27.4466C14.2007 27.4466 14.5674 26.962 14.5893 26.2599ZM15.4977 28.375H14.4627L14.4865 27.883C14.1708 28.2719 13.7495 28.4567 13.1772 28.4567C12.5001 28.4567 12.0359 27.9279 12.0359 27.16C12.0359 26.0046 12.8433 25.3305 14.2293 25.3305C14.3708 25.3305 14.5524 25.3433 14.7383 25.367C14.7771 25.2105 14.7872 25.1435 14.7872 25.0593C14.7872 24.7447 14.5695 24.6274 13.986 24.6274C13.3749 24.6204 12.8708 24.7729 12.6638 24.8411C12.6769 24.7622 12.8369 23.7732 12.8369 23.7732C13.4595 23.5908 13.8701 23.5222 14.3321 23.5222C15.4047 23.5222 15.9729 24.0037 15.9719 24.914C15.9739 25.1579 15.9336 25.4588 15.8706 25.8544C15.7621 26.5423 15.5296 28.0158 15.4977 28.375ZM11.5132 28.375H10.264L10.9796 23.8881L9.38179 28.375H8.53051L8.42538 23.9137L7.6732 28.375H6.50385L7.48064 22.5382H9.27679L9.38577 25.8053L10.4814 22.5382H12.4793L11.5132 28.375ZM34.2683 26.2599C34.1378 26.2447 34.0797 26.2406 33.99 26.2406C33.2822 26.2406 32.9237 26.4835 32.9237 26.9629C32.9237 27.2585 33.0985 27.4466 33.3713 27.4466C33.8803 27.4466 34.2472 26.962 34.2683 26.2599ZM35.1775 28.375H34.1426L34.166 27.883C33.8503 28.2719 33.4288 28.4567 32.857 28.4567C32.1797 28.4567 31.716 27.9279 31.716 27.16C31.716 26.0046 32.5228 25.3305 33.909 25.3305C34.0506 25.3305 34.2319 25.3433 34.4176 25.367C34.4563 25.2105 34.4665 25.1435 34.4665 25.0593C34.4665 24.7447 34.2491 24.6274 33.6655 24.6274C33.0544 24.6204 32.5509 24.7729 32.3431 24.8411C32.3562 24.7622 32.5167 23.7732 32.5167 23.7732C33.1394 23.5908 33.5496 23.5222 34.0111 23.5222C35.0842 23.5222 35.6524 24.0037 35.6513 24.914C35.6534 25.1579 35.6131 25.4588 35.5501 25.8544C35.4422 26.5423 35.209 28.0158 35.1775 28.375ZM21.0499 28.3029C20.708 28.4106 20.4415 28.4567 20.1525 28.4567C19.5138 28.4567 19.1653 28.0897 19.1653 27.414C19.1562 27.2043 19.2572 26.6525 19.3365 26.1488C19.4086 25.7054 19.8781 22.9097 19.8781 22.9097H21.1199L20.9749 23.6282H21.7249L21.5554 24.769H20.8028C20.6585 25.6717 20.4531 26.7962 20.4508 26.9452C20.4508 27.1899 20.5813 27.2967 20.8783 27.2967C21.0207 27.2967 21.131 27.2822 21.2152 27.2518L21.0499 28.3029ZM24.857 28.2645C24.4305 28.3948 24.0189 28.4579 23.5828 28.4568C22.1928 28.4554 21.4682 27.7295 21.4682 26.3393C21.4682 24.7167 22.39 23.5222 23.6413 23.5222C24.665 23.5222 25.3188 24.191 25.3188 25.2399C25.3188 25.5879 25.274 25.9277 25.1658 26.4073H22.6931C22.6095 27.0959 23.0501 27.3828 23.7724 27.3828C24.2169 27.3828 24.6178 27.2911 25.0635 27.0839L24.857 28.2645ZM24.1592 25.4504C24.166 25.3515 24.2908 24.6031 23.5814 24.6031C23.1858 24.6031 22.903 24.9047 22.7878 25.4504H24.1592ZM16.2476 25.1288C16.2476 25.7292 16.5387 26.1432 17.199 26.4541C17.7049 26.6919 17.7831 26.7624 17.7831 26.9779C17.7831 27.2738 17.5601 27.4074 17.0657 27.4074C16.6931 27.4074 16.3465 27.3492 15.9466 27.2202C15.9466 27.2202 15.7823 28.2663 15.7748 28.3164C16.0588 28.3783 16.312 28.4357 17.0748 28.4568C18.3929 28.4568 19.0016 27.9549 19.0016 26.8702C19.0016 26.218 18.7468 25.8352 18.121 25.5476C17.5972 25.3072 17.5371 25.2535 17.5371 25.0318C17.5371 24.7752 17.7447 24.6443 18.1485 24.6443C18.3937 24.6443 18.7287 24.6704 19.046 24.7156L19.2238 23.6147C18.9004 23.5634 18.41 23.5222 18.1245 23.5222C16.7271 23.5222 16.2433 24.2522 16.2476 25.1288ZM30.9329 23.647C31.2799 23.647 31.6033 23.738 32.0491 23.9624L32.2534 22.6956C32.0704 22.6238 31.4262 22.202 30.8806 22.202C30.0445 22.202 29.3379 22.6167 28.8408 23.3013C28.1158 23.0612 27.8178 23.5465 27.4524 24.03L27.1279 24.1056C27.1525 23.9464 27.1747 23.7882 27.1672 23.6282H26.0201C25.8633 25.0973 25.5855 26.5853 25.3681 28.0561L25.3114 28.3751H26.5612C26.7697 27.0198 26.8841 26.152 26.9535 25.5647L27.4242 25.3029C27.4944 25.0414 27.7145 24.9531 28.156 24.9637C28.0966 25.2847 28.0669 25.6105 28.0673 25.937C28.0673 27.4899 28.9052 28.4568 30.25 28.4568C30.5964 28.4568 30.8937 28.4111 31.3539 28.2865L31.5738 26.9557C31.1597 27.1595 30.8199 27.2554 30.5122 27.2554C29.7861 27.2554 29.3467 26.7194 29.3467 25.8334C29.3466 24.5481 30.0002 23.647 30.9329 23.647Z" fill="black"/>
<path d="M11.8724 28.0282H10.623L11.339 23.5418L9.74127 28.0282H8.88986L8.78461 23.5675L8.03249 28.0282H6.86307L7.83986 22.1922H9.63602L9.68653 25.8051L10.8983 22.1922H12.8385L11.8724 28.0282Z" fill="white"/>
<path d="M41.5077 22.5385L41.2308 24.2249C40.8891 23.7754 40.5222 23.4501 40.0377 23.4501C39.4074 23.4501 38.8336 23.9279 38.4581 24.6311C37.9352 24.5227 37.3942 24.3386 37.3942 24.3386L37.394 24.3429C37.4361 23.9498 37.4529 23.7099 37.4492 23.6285H36.3018C36.1456 25.0975 35.8678 26.5855 35.6507 28.0563L35.5934 28.3753H36.8429C37.0117 27.2793 37.141 26.3693 37.2361 25.6477C37.6629 25.262 37.8766 24.9254 38.3079 24.9479C38.117 25.4098 38.005 25.9417 38.005 26.4874C38.005 27.6742 38.6055 28.457 39.5136 28.457C39.9714 28.457 40.3226 28.2992 40.6653 27.9333L40.6068 28.3745H41.7884L42.7399 22.5385H41.5077ZM39.9455 27.2783C39.5202 27.2783 39.3056 26.9636 39.3056 26.3426C39.3056 25.4097 39.7075 24.7481 40.2743 24.7481C40.7034 24.7481 40.9358 25.0752 40.9358 25.6781C40.9359 26.6192 40.5275 27.2783 39.9455 27.2783Z" fill="black"/>
<path d="M14.9481 25.9141C14.8172 25.899 14.7592 25.8949 14.6695 25.8949C13.9614 25.8949 13.6032 26.1377 13.6032 26.6171C13.6032 26.9122 13.7782 27.1009 14.0507 27.1009C14.5599 27.1008 14.9267 26.6163 14.9481 25.9141ZM15.857 28.0284H14.822L14.8455 27.5372C14.5301 27.9253 14.1083 28.1109 13.5365 28.1109C12.8591 28.1109 12.3952 27.5821 12.3952 26.8142C12.3952 25.6583 13.2023 24.9846 14.5885 24.9846C14.7301 24.9846 14.9117 24.9974 15.0974 25.0212C15.1361 24.8647 15.1462 24.7977 15.1462 24.713C15.1462 24.3984 14.9289 24.2816 14.3452 24.2816C13.7339 24.2747 13.2301 24.4272 13.0228 24.4945C13.0359 24.4159 13.1959 23.428 13.1959 23.428C13.8183 23.2448 14.2293 23.1761 14.6908 23.1761C15.7638 23.1761 16.3321 23.658 16.3311 24.5674C16.333 24.8123 16.2923 25.1131 16.2296 25.5081C16.1214 26.1956 15.8885 27.67 15.857 28.0284ZM32.6121 22.3495L32.4075 23.6166C31.962 23.3925 31.6383 23.3011 31.2917 23.3011C30.3589 23.3011 29.7051 24.2023 29.7051 25.4875C29.7051 26.3734 30.1447 26.9093 30.8707 26.9093C31.1784 26.9093 31.5179 26.8137 31.9319 26.6095L31.7126 27.9397C31.2521 28.0652 30.9552 28.1109 30.6084 28.1109C29.2638 28.1109 28.4257 27.144 28.4257 25.5911C28.4257 23.5046 29.5833 22.0463 31.239 22.0463C31.7844 22.0463 32.4289 22.2776 32.6121 22.3495ZM34.6276 25.9141C34.4968 25.899 34.4391 25.8949 34.349 25.8949C33.6412 25.8949 33.2828 26.1377 33.2828 26.6171C33.2828 26.9122 33.4577 27.1009 33.7305 27.1009C34.2392 27.1008 34.6062 26.6163 34.6276 25.9141ZM35.5366 28.0284H34.5013L34.525 27.5372C34.2094 27.9253 33.7878 28.1109 33.216 28.1109C32.5389 28.1109 32.0748 27.5821 32.0748 26.8142C32.0748 25.6583 32.8821 24.9846 34.2678 24.9846C34.4097 24.9846 34.591 24.9974 34.7769 25.0212C34.8154 24.8647 34.8258 24.7977 34.8258 24.713C34.8258 24.3984 34.6083 24.2816 34.0248 24.2816C33.4137 24.2747 32.9096 24.4272 32.7024 24.4945C32.7155 24.4159 32.8757 23.428 32.8757 23.428C33.4981 23.2448 33.9088 23.1761 34.3703 23.1761C35.4435 23.1761 36.0116 23.658 36.0103 24.5674C36.0124 24.8123 35.9721 25.1131 35.9091 25.5081C35.8012 26.1956 35.5678 27.67 35.5366 28.0284ZM21.409 27.9565C21.0668 28.0642 20.8003 28.1109 20.5115 28.1109C19.8729 28.1109 19.5244 27.7439 19.5244 27.0683C19.5155 26.8579 19.6165 26.3066 19.6958 25.803C19.7676 25.359 20.2373 22.5637 20.2373 22.5637H21.4787L21.3339 23.2824H21.9712L21.8016 24.4227H21.1622C21.018 25.3259 20.812 26.4495 20.8099 26.5989C20.8099 26.8444 20.9408 26.9504 21.2375 26.9504C21.3798 26.9504 21.4899 26.9365 21.5743 26.906L21.409 27.9565ZM25.2162 27.9186C24.7899 28.049 24.3777 28.1118 23.9418 28.1109C22.5518 28.1096 21.8273 27.3836 21.8273 25.9934C21.8273 24.3703 22.749 23.1761 24.0003 23.1761C25.024 23.1761 25.6779 23.8447 25.6779 24.8941C25.6779 25.2424 25.633 25.5821 25.5252 26.0615H23.0524C22.9687 26.75 23.4094 27.0372 24.1317 27.0372C24.576 27.0372 24.9771 26.9453 25.4226 26.7375L25.2162 27.9186ZM24.518 25.1038C24.5255 25.0052 24.6499 24.2565 23.9402 24.2565C23.5449 24.2565 23.2621 24.5589 23.1469 25.1038H24.518ZM16.6064 24.783C16.6064 25.3833 16.8976 25.7968 17.5578 26.1083C18.0637 26.346 18.1419 26.4168 18.1419 26.632C18.1419 26.928 17.9187 27.0615 17.4248 27.0615C17.0519 27.0615 16.7053 27.0033 16.3051 26.8743C16.3051 26.8743 16.1414 27.9205 16.134 27.9705C16.4173 28.0325 16.6708 28.0891 17.4336 28.1109C18.752 28.1109 19.3605 27.6091 19.3605 26.5247C19.3605 25.8721 19.1059 25.4894 18.4798 25.2018C17.9563 24.9609 17.8957 24.908 17.8957 24.686C17.8957 24.4296 18.1037 24.2977 18.5073 24.2977C18.7523 24.2977 19.0872 24.3246 19.405 24.3698L19.5826 23.2685C19.2595 23.2172 18.7691 23.1761 18.4835 23.1761C17.0858 23.1761 16.6024 23.9056 16.6064 24.783ZM42.1481 28.0284H40.9662L41.025 27.5866C40.6823 27.9531 40.3311 28.1109 39.8733 28.1109C38.9651 28.1109 38.3649 27.3281 38.3649 26.1414C38.3649 24.5625 39.2958 23.2316 40.3976 23.2316C40.8821 23.2316 41.2489 23.4295 41.5901 23.8788L41.8674 22.1924H43.0995L42.1481 28.0284ZM40.3055 26.9317C40.8872 26.9317 41.2958 26.2725 41.2958 25.3322C41.2958 24.7293 41.0632 24.4021 40.634 24.4021C40.0674 24.4021 39.665 25.0634 39.665 25.9966C39.6649 26.6175 39.8802 26.9317 40.3055 26.9317ZM36.6617 23.2824C36.5053 24.7515 36.2275 26.2395 36.0103 27.7095L35.9532 28.0284H37.2026C37.6494 25.1262 37.7576 24.5594 38.4582 24.6304C38.5699 24.0365 38.7776 23.5161 38.9325 23.2536C38.4092 23.1446 38.1171 23.4403 37.7346 24.002C37.7648 23.7592 37.8201 23.5234 37.8091 23.2824H36.6617ZM26.3783 23.2824C26.2215 24.7515 25.9437 26.2395 25.7266 27.7095L25.6698 28.0284H26.9198C27.366 25.1262 27.474 24.5594 28.1742 24.6304C28.2864 24.0365 28.4942 23.5161 28.6485 23.2536C28.1258 23.1446 27.8334 23.4403 27.4512 24.002C27.4814 23.7592 27.5362 23.5234 27.5257 23.2824H26.3783ZM42.6969 27.6569C42.6969 27.4509 42.8633 27.2851 43.0685 27.2851C43.2734 27.2849 43.4398 27.4509 43.44 27.6559V27.6569C43.4399 27.862 43.2736 28.0283 43.0685 28.0284C42.8633 28.0283 42.6971 27.862 42.6969 27.6569ZM43.0685 27.9392C43.2244 27.9393 43.3507 27.8129 43.3507 27.6571V27.657C43.3509 27.501 43.2246 27.3745 43.0687 27.3744H43.0685C42.9124 27.3745 42.7859 27.5009 42.7858 27.657C42.786 27.8129 42.9125 27.9392 43.0685 27.9392ZM43.0182 27.8193H42.9421V27.4934H43.0801C43.1087 27.4934 43.1383 27.494 43.1632 27.5097C43.1899 27.5279 43.2051 27.5589 43.2051 27.5914C43.2051 27.6283 43.1835 27.6627 43.1482 27.6758L43.2085 27.8191H43.124L43.074 27.6904H43.0182V27.8191V27.8193ZM43.0182 27.6347H43.0601C43.0758 27.6347 43.093 27.6359 43.1069 27.6283C43.1194 27.6203 43.1258 27.6052 43.1258 27.5907C43.1252 27.5772 43.1184 27.5648 43.1074 27.5571C43.0943 27.5496 43.0726 27.5516 43.0585 27.5516H43.0182V27.6347H43.0182Z" fill="white"/>
</svg>
