<svg width="50" height="50" viewBox="0 0 50 50" fill="none" xmlns="http://www.w3.org/2000/svg">
<path d="M2.5641 8.97443H47.4359C48.8521 8.97443 50 10.1224 50 11.5385V38.4616C50 39.8778 48.8521 41.0257 47.4359 41.0257H2.5641C1.14801 41.0257 0 39.8778 0 38.4616V11.5385C0 10.1224 1.14801 8.97443 2.5641 8.97443Z" fill="#2557D6"/>
<path d="M0.0162202 24.0827H2.41628L2.95744 22.8321H4.16898L4.70872 24.0827H9.43103V23.1266L9.85257 24.0869H12.304L12.7256 23.1124V24.0828H24.4615L24.456 22.0298H24.6831C24.842 22.0351 24.8885 22.0492 24.8885 22.3007V24.0828H30.9583V23.6049C31.448 23.8562 32.2094 24.0828 33.2114 24.0828H35.7649L36.3114 22.8321H37.523L38.0574 24.0828H42.9782V22.8948L43.7235 24.0828H47.6667V16.2296H43.7642V17.157L43.2179 16.2296H39.2133V17.157L38.7116 16.2296H33.3026C32.3973 16.2296 31.6014 16.3506 30.9584 16.6881V16.2296H27.2258V16.6881C26.8166 16.3403 26.2592 16.2296 25.6392 16.2296H12.0021L11.0871 18.2578L10.1474 16.2296H5.85218V17.157L5.38026 16.2296H1.71712L0.0158997 19.9633V24.0826H0.016092L0.0162202 24.0827ZM15.1662 22.95H13.7262L13.7209 18.5401L11.684 22.9499H10.4507L8.40853 18.5362V22.9499H5.55148L5.01173 21.694H2.08693L1.54173 22.9499H0.0160279L2.53148 17.3194H4.61859L7.00763 22.6504V17.3194H9.30033L11.1387 21.139L12.8274 17.3194H15.1662L15.1662 22.95ZM4.53161 20.5255L3.5702 18.2808L2.61411 20.5255H4.53161ZM20.897 22.9499H16.2045V17.3193H20.897V18.4918H17.6092V19.5067H20.8182V20.6609H17.6092V21.7854H20.8969L20.897 22.9499ZM27.5098 18.8358C27.5098 19.7335 26.8845 20.1973 26.5201 20.3365C26.8274 20.4486 27.0901 20.6467 27.215 20.8107C27.4133 21.0908 27.4476 21.3409 27.4476 21.8438V22.9499H26.0307L26.0253 22.2398C26.0253 21.901 26.0592 21.4138 25.8037 21.1429C25.5984 20.9448 25.2855 20.9019 24.7798 20.9019H23.2719V22.9499H21.8671V17.3193H25.098C25.8158 17.3193 26.3448 17.3374 26.7989 17.589C27.2433 17.8405 27.5098 18.2077 27.5098 18.8358ZM25.7342 19.6718C25.5411 19.7841 25.3129 19.7878 25.0393 19.7878H23.3329V18.5372H25.0625C25.3073 18.5372 25.5628 18.5477 25.7287 18.6387C25.9109 18.7208 26.0237 18.8953 26.0237 19.1365C26.0237 19.3826 25.9164 19.5806 25.7342 19.6718ZM29.7627 22.9499H28.3295V17.3193H29.7627V22.9499ZM46.4012 22.9499H44.4106L41.7481 18.7238V22.9499H38.8873L38.3407 21.694H35.4227L34.8925 22.9499H33.2484C32.5658 22.9499 31.7011 22.8052 31.2117 22.3271C30.718 21.849 30.4612 21.2015 30.4612 20.1776C30.4612 19.3425 30.6147 18.5791 31.2183 17.9758C31.6725 17.5265 32.3837 17.3193 33.3517 17.3193H34.7116V18.5258H33.3801C32.8675 18.5258 32.578 18.5988 32.2992 18.8593C32.0598 19.0964 31.8955 19.5446 31.8955 20.1347C31.8955 20.738 32.0206 21.173 32.2816 21.4571C32.4978 21.6799 32.891 21.7474 33.2606 21.7474H33.8915L35.8712 17.3195H37.976L40.3544 22.6452V17.3196H42.4932L44.9624 21.241V17.3196H46.4012V22.9499ZM37.8627 20.5255L36.8906 18.2808L35.9239 20.5255H37.8627ZM49.9807 31.9409C49.6395 32.4189 48.9746 32.6613 48.0745 32.6613H45.3617V31.4536H48.0635C48.3315 31.4536 48.519 31.4198 48.6319 31.3142C48.7387 31.2197 48.7989 31.0864 48.798 30.9469C48.798 30.7828 48.7298 30.6525 48.6264 30.5744C48.5245 30.4884 48.3762 30.4494 48.1314 30.4494C46.8126 30.4065 45.1671 30.4884 45.1671 28.7062C45.1671 27.8894 45.7083 27.0296 47.1824 27.0296H49.9804V25.9091H47.3806C46.5962 25.9091 46.0262 26.0892 45.6226 26.369V25.909H41.7774C41.1623 25.909 40.4406 26.0551 40.0992 26.369V25.909H33.2326V26.369C32.6862 25.9913 31.7641 25.909 31.3384 25.909H26.8092V26.369C26.3768 25.9678 25.4155 25.909 24.8293 25.909H19.7603L18.6004 27.1119L17.5139 25.909H9.94148V33.7674H17.371L18.5662 32.5455L19.6922 33.7674L24.2718 33.7713V31.9227H24.7219C25.3295 31.9317 26.0462 31.9081 26.6785 31.6463V33.7671H30.4559V31.7189H30.6381C30.8707 31.7189 30.8935 31.7281 30.8935 31.9506V33.7669H42.3685C43.097 33.7669 43.8585 33.5883 44.2803 33.264V33.7669H47.9201C48.6775 33.7669 49.4171 33.6651 49.98 33.4048L49.9801 31.9406L49.9807 31.9409ZM27.2281 28.9181C27.2281 30.4826 26.0098 30.8056 24.782 30.8056H23.0292V32.6947H20.299L18.5693 30.8302L16.7717 32.6947H11.2075V27.0627H16.8572L18.5855 28.9088L20.3723 27.0627H24.8608C25.9755 27.0627 27.2281 27.3584 27.2281 28.9181ZM16.0601 31.5101H12.6064V30.3896H15.6904V29.2405H12.6064V28.2165H16.1281L17.6646 29.8578L16.0601 31.5101ZM21.6249 32.1549L19.4682 29.8608L21.6249 27.6396V32.1549ZM24.8144 29.6507H22.9992V28.2165H24.8307C25.3379 28.2165 25.6899 28.4146 25.6899 28.907C25.6899 29.3941 25.3542 29.6507 24.8144 29.6507ZM34.3247 27.0627H39.013V28.2274H35.7236V29.2514H38.9327V30.4005H35.7236V31.521L39.013 31.5261V32.6947H34.3246L34.3247 27.0627ZM32.5222 30.0774C32.8349 30.188 33.0905 30.3861 33.2103 30.5501C33.4087 30.8252 33.4373 31.0818 33.443 31.5781V32.6947H32.0326V31.9901C32.0326 31.6512 32.0667 31.1496 31.8056 30.8876C31.6004 30.6859 31.2874 30.6377 30.7751 30.6377H29.2738V32.6948H27.8623V27.0628H31.1055C31.8166 27.0628 32.3345 27.0929 32.7956 27.3285C33.2389 27.5852 33.5178 27.9367 33.5178 28.5792C33.5177 29.4781 32.8919 29.9368 32.5222 30.0774ZM31.7283 29.3654C31.5403 29.4723 31.308 29.4815 31.0348 29.4815H29.3283V28.2166H31.0579C31.308 28.2166 31.5583 28.2217 31.7283 28.3183C31.9103 28.4096 32.0192 28.5841 32.0192 28.8249C32.0192 29.0658 31.9103 29.2599 31.7283 29.3654ZM44.4091 29.7242C44.6828 29.9953 44.8292 30.3377 44.8292 30.9173C44.8292 32.1289 44.0393 32.6944 42.6224 32.6944H39.8866V31.4867H42.6116C42.878 31.4867 43.0669 31.4531 43.1853 31.3473C43.2819 31.2603 43.3512 31.1337 43.3512 30.9801C43.3512 30.8159 43.2762 30.6857 43.1798 30.6076C43.0724 30.5217 42.9242 30.4826 42.6796 30.4826C41.3659 30.4397 39.7208 30.5217 39.7208 28.7396C39.7208 27.9226 40.2564 27.0628 41.7291 27.0628H44.5453V28.2615H41.9685C41.7131 28.2615 41.547 28.2708 41.4057 28.3632C41.2519 28.4544 41.1948 28.5898 41.1948 28.7683C41.1948 28.9807 41.3254 29.1253 41.5022 29.1879C41.6503 29.2373 41.8096 29.2517 42.0487 29.2517L42.805 29.2713C43.5675 29.289 44.0909 29.4154 44.4091 29.7242ZM49.9831 28.2165H47.423C47.1674 28.2165 46.9975 28.2257 46.8546 28.3182C46.7064 28.4094 46.6493 28.5448 46.6493 28.7235C46.6493 28.9359 46.7744 29.0804 46.9564 29.143C47.1046 29.1924 47.2638 29.2068 47.4977 29.2068L48.2591 29.2263C49.0273 29.2445 49.54 29.371 49.8527 29.6796C49.9098 29.7226 49.9439 29.7708 49.983 29.819V28.2165H49.9831Z" fill="white"/>
</svg>
